<svg xmlns="http://www.w3.org/2000/svg" viewBox="0 0 209.51 30.57"><title>letters_blue</title><g id="Layer_2" data-name="Layer 2"><g id="Layer_9" data-name="Layer 9"><path d="M26.15,26.21a4.36,4.36,0,0,1-4.36,4.36H4.36a4.19,4.19,0,0,1-3.08-1.28A4.2,4.2,0,0,1,0,26.21V4.42A4.2,4.2,0,0,1,1.28,1.34,4.2,4.2,0,0,1,4.36.06H21.79a4.2,4.2,0,0,1,3.08,1.28,4.2,4.2,0,0,1,1.28,3.08Zm-5,0V4.42H5V26.21Z" fill="#1d3d49"/><path d="M54.48,8.78l-3.8,3.74H40.16V26.84H53.23v3.74H40.16a4.36,4.36,0,0,1-4.36-4.36V13.14a4.36,4.36,0,0,1,4.36-4.36Z" fill="#1d3d49"/><path d="M73.16,30.57H64.44a4.36,4.36,0,0,1-4.36-4.36V12.51H53.86l3.74-3.74h2.49V4.42L64.44.06V8.78h8.72v3.74H64.44V26.84h8.72Z" fill="#1d3d49"/><path d="M101.17,26.21a4.36,4.36,0,0,1-4.36,4.36H83.74a4.36,4.36,0,0,1-4.36-4.36V13.14a4.36,4.36,0,0,1,4.36-4.36H96.82a4.36,4.36,0,0,1,4.36,4.36Zm-4.36.62V12.51H83.74V26.84Z" fill="#1d3d49"/><path d="M137,26.21a4.36,4.36,0,0,1-4.36,4.36H115.18a4.36,4.36,0,0,1-4.36-4.36V4.42a4.2,4.2,0,0,1,1.28-3.08A4.2,4.2,0,0,1,115.18.06h17.43a4.2,4.2,0,0,1,3.08,1.28A4.2,4.2,0,0,1,137,4.42V8.78h-5V4.42H115.8V26.21H132V21.85h5Z" fill="#1d3d49"/><path d="M209.51,26.21a4.36,4.36,0,0,1-4.36,4.36H187.72a4.36,4.36,0,0,1-4.36-4.36V4.42a4.2,4.2,0,0,1,1.28-3.08A4.2,4.2,0,0,1,187.72.06h17.43a4.2,4.2,0,0,1,3.08,1.28,4.2,4.2,0,0,1,1.28,3.08V8.78h-5V4.42H188.34V26.21h16.19V21.85h5Z" fill="#1d3d49"/><polygon points="146.31 30.51 151.29 30.51 151.29 26.2 146.31 23.3 146.31 30.51" fill="#1d3d49"/><polygon points="146.31 20.75 151.29 23.92 151.29 21.27 146.31 18.36 146.31 20.75" fill="#1d3d49"/><polygon points="146.31 15.82 151.29 18.99 151.29 16.33 146.31 13.43 146.31 15.82" fill="#1d3d49"/><polygon points="167.48 0 167.48 22.73 167.48 25.83 155.09 0 146.31 0 146.31 5.96 151.29 9.13 151.29 7.78 151.29 4.71 163.75 30.51 172.46 30.51 172.46 0 167.48 0" fill="#1d3d49"/><polygon points="146.31 10.89 151.29 14.06 151.29 11.4 146.31 8.5 146.31 10.89" fill="#1d3d49"/></g></g></svg>