<svg xmlns="http://www.w3.org/2000/svg" viewBox="0 0 387.94 56.61"><title>letters_yellow</title><g id="Layer_2" data-name="Layer 2"><g id="Layer_9" data-name="Layer 9"><path d="M48.42,48.54a8.07,8.07,0,0,1-8.07,8.07H8.07a7.77,7.77,0,0,1-5.71-2.36A7.77,7.77,0,0,1,0,48.54V8.19A7.77,7.77,0,0,1,2.36,2.48,7.77,7.77,0,0,1,8.07.11H40.35a7.78,7.78,0,0,1,5.71,2.36,7.78,7.78,0,0,1,2.37,5.71Zm-9.22,0V8.19h-30V48.54Z" fill="#ba8b00"/><path d="M100.88,16.26l-7,6.92H74.36V49.69H98.57v6.92H74.36a8.07,8.07,0,0,1-8.07-8.07V24.33a8.07,8.07,0,0,1,8.07-8.07Z" fill="#ba8b00"/><path d="M135.46,56.61H119.32a8.07,8.07,0,0,1-8.07-8.07V23.17H99.72l6.92-6.92h4.61V8.19L119.32.11V16.26h16.14v6.92H119.32V49.69h16.14Z" fill="#ba8b00"/><path d="M187.34,48.54a8.07,8.07,0,0,1-8.07,8.07H155.06A8.07,8.07,0,0,1,147,48.54V24.33a8.07,8.07,0,0,1,8.07-8.07h24.21a8.07,8.07,0,0,1,8.07,8.07Zm-8.07,1.15V23.17H155.06V49.69Z" fill="#ba8b00"/><path d="M253.63,48.54a8.07,8.07,0,0,1-8.07,8.07H213.28a8.07,8.07,0,0,1-8.07-8.07V8.19a7.77,7.77,0,0,1,2.36-5.71A7.77,7.77,0,0,1,213.28.11h32.28a7.78,7.78,0,0,1,5.71,2.36,7.78,7.78,0,0,1,2.37,5.71v8.07h-9.22V8.19h-30V48.54h30V40.47h9.22Z" fill="#ba8b00"/><path d="M387.94,48.54a8.07,8.07,0,0,1-8.07,8.07H347.59a8.07,8.07,0,0,1-8.07-8.07V8.19a7.77,7.77,0,0,1,2.36-5.71A7.77,7.77,0,0,1,347.59.11h32.28a7.78,7.78,0,0,1,5.71,2.36,7.78,7.78,0,0,1,2.37,5.71v8.07h-9.22V8.19h-30V48.54h30V40.47h9.22Z" fill="#ba8b00"/><polygon points="270.93 56.49 280.15 56.49 280.15 48.51 270.93 43.14 270.93 56.49" fill="#ba8b00"/><polygon points="270.93 38.43 280.15 44.3 280.15 39.38 270.93 34 270.93 38.43" fill="#ba8b00"/><polygon points="270.93 29.3 280.15 35.17 280.15 30.25 270.93 24.87 270.93 29.3" fill="#ba8b00"/><polygon points="310.12 0 310.12 42.08 310.12 47.84 287.18 0 270.93 0 270.93 11.03 280.15 16.91 280.15 14.41 280.15 8.71 303.2 56.49 319.35 56.49 319.35 0 310.12 0" fill="#ba8b00"/><polygon points="270.93 20.16 280.15 26.04 280.15 21.11 270.93 15.74 270.93 20.16" fill="#ba8b00"/></g></g></svg>