<svg xmlns="http://www.w3.org/2000/svg" xmlns:xlink="http://www.w3.org/1999/xlink" viewBox="0 0 906.03 213.27"><defs><clipPath id="clip-path"><polyline points="266.02 212.82 467.24 212.82 467.24 105.46 266.02 105.46 266.02 212.82" fill="none"/></clipPath></defs><title>splash</title><g id="Layer_2" data-name="Layer 2"><g id="Layer_6" data-name="Layer 6"><rect width="906.03" height="212.82" fill="#1d3d49"/><path d="M66.15,47.3h0" fill="#3a7a91"/><path d="M66,47.3h0" fill="#3a7a91"/><path d="M137.65,203.65c4.72,2.56,9.8,6.45,14.36,9.45-4.2-2.95-9-6.74-14.36-9.45M43,147.23c-11,8.48-23.25,9-35.29,9H3.07q-1.55,0-3.07-.1v6.16a6.85,6.85,0,1,1,0,11.87v8.35a4,4,0,1,1,0,5.12v13.49c13.9-8.75,13.71-23.89,20-30.49,11.51-12,16.87-5.81,23-23.35M129.37,189a4,4,0,1,1,4-4,4,4,0,0,1-4,4M129,175a6.85,6.85,0,1,1,6.85-6.85A6.85,6.85,0,0,1,129,175m32.91-32.88a44.64,44.64,0,0,1-32.56,14h-4.69c-12,0-24.27-.49-35.29-9,6.14,17.54,11.5,11.34,23,23.35,6.46,6.75,6.13,22.4,21,31.05.9-5.42,1.37-9.62,6-15.39a130.84,130.84,0,0,0,22.61-44.09M66.22,83.87a5.28,5.28,0,1,1,5.28-5.28,5.28,5.28,0,0,1-5.28,5.28M38.94,70.07a6.44,6.44,0,1,1,6.44-6.44,6.44,6.44,0,0,1-6.44,6.44m54.51,0a6.44,6.44,0,1,1,6.44-6.44,6.44,6.44,0,0,1-6.44,6.44M66.78,60.64a4.72,4.72,0,1,1,4.72-4.72,4.72,4.72,0,0,1-4.72,4.72M66,47.3h0a130.16,130.16,0,0,0-66,19v.52q1.52-.1,3.07-.1h.29c38.39,0,38.15,19.48,62.83,27.17C90.88,86.15,90.63,66.67,129,66.67h.29q1.88,0,3.72.15A130,130,0,0,0,66.13,47.3H66" fill="#3a7a91"/><path d="M3.42,161.33a6.82,6.82,0,0,0-3.42.91v11.87a6.85,6.85,0,1,0,3.42-12.78" fill="#6fc0de"/><path d="M3,181.07a4,4,0,0,0-3,1.4v5.12a4,4,0,1,0,3-6.52" fill="#6fc0de"/><path d="M38.94,57.18a6.44,6.44,0,1,0,6.44,6.44,6.44,6.44,0,0,0-6.44-6.44" fill="#6fc0de"/><path d="M125.88,149.58a36.92,36.92,0,1,1,36.92-36.92,36.92,36.92,0,0,1-36.92,36.92M129,66.67c-38.39,0-38.15,19.48-62.83,27.17C41.51,86.15,41.74,66.67,3.36,66.67H3.07q-1.55,0-3.07.1v9.55A36.92,36.92,0,1,1,0,149v7.08q1.52.1,3.07.1H7.76c12,0,24.27-.49,35.29-9-6.14,17.54-11.5,11.34-23,23.35-6.32,6.6-6.14,21.75-20,30.49v12.19H47.7c-4.81-8.32-9.46-20.77-12.56-39.2-.08-.47,1-.88,1.66-.88a.92.92,0,0,1,.3,0c8.68,3.11,22.75,2.91,29.12,3v23.4h0V176.2c6.37-.05,20.43.15,29.12-3a.92.92,0,0,1,.3,0c.65,0,1.74.41,1.66.88-3.1,18.43-7.75,30.88-12.56,39.2h67.52l-.26-.17c-4.56-3-9.64-6.89-14.36-9.45a29.26,29.26,0,0,0-4.12-1.89l-.23-.13c-14.83-8.65-14.49-24.31-21-31.05-11.51-12-16.87-5.81-23-23.35,11,8.48,23.25,9,35.29,9h4.69A44.76,44.76,0,0,0,133,66.82q-1.84-.15-3.72-.15H129" fill="#6fc0de"/><path d="M18.32,122.23A16,16,0,1,1,31.21,96.89a6.59,6.59,0,1,0,2.91,11.5h0a15.89,15.89,0,0,1-15.8,13.84M6.5,75.75a37.16,37.16,0,0,0-6.5.57V149A36.92,36.92,0,1,0,6.5,75.75" fill="#fff"/><path d="M18.33,90.32a16,16,0,1,0,15.79,18.06,6.59,6.59,0,1,1-2.91-11.5,15.94,15.94,0,0,0-12.88-6.56"/><path d="M129,161.33a6.85,6.85,0,1,0,6.85,6.85,6.85,6.85,0,0,0-6.85-6.85" fill="#6fc0de"/><path d="M129.37,181.07a4,4,0,1,0,4,4,4,4,0,0,0-4-4" fill="#6fc0de"/><path d="M93.45,57.18a6.44,6.44,0,1,0,6.44,6.44,6.44,6.44,0,0,0-6.44-6.44" fill="#6fc0de"/><path d="M142.17,121.41A16,16,0,1,1,154,94.73l-.6,0a6.59,6.59,0,1,0,4.75,11.14h0a15.93,15.93,0,0,1-15.95,15.56M125.88,75.75a36.92,36.92,0,1,0,36.92,36.92,36.92,36.92,0,0,0-36.92-36.92" fill="#fff"/><path d="M142.2,89.51a16,16,0,1,0,15.92,16.33,6.59,6.59,0,1,1-4.75-11.14l.6,0a15.83,15.83,0,0,0-11.77-5.22"/><path d="M36.8,173.2c-.65,0-1.74.41-1.66.88,3.1,18.43,7.75,30.88,12.56,39.2h4c-2.23-3.52-3.67-7.15-3.52-9.86.35-6.41,4.11-8.6,11.26-8.6,6.18,0,5.07,7.28,4.61,9.44a15.73,15.73,0,0,1,2.13-4.67V176.2c-6.37-.05-20.43.15-29.12-3a.92.92,0,0,0-.3,0"/><path d="M95.64,173.2a.92.92,0,0,0-.3,0c-8.68,3.11-22.75,2.91-29.12,3v23.39a10.44,10.44,0,0,1,9-4.78h0c3.57,0,10,1,10,10.15a18.77,18.77,0,0,1-2.53,8.31h2c4.81-8.32,9.46-20.77,12.56-39.2.08-.47-1-.88-1.66-.88"/><path d="M75.2,194.82a10.44,10.44,0,0,0-9,4.78h0a15.73,15.73,0,0,0-2.13,4.67c.46-2.17,1.57-9.44-4.61-9.44-7.16,0-10.91,2.19-11.26,8.6-.15,2.71,1.3,6.34,3.52,9.86h31A18.77,18.77,0,0,0,85.25,205c0-9.13-6.48-10.14-10-10.15h0" fill="#e83f6f"/><path d="M66.22,73.31a5.28,5.28,0,1,0,5.28,5.28,5.28,5.28,0,0,0-5.28-5.28" fill="#6fc0de"/><path d="M66.78,51.19a4.72,4.72,0,1,0,4.72,4.72,4.72,4.72,0,0,0-4.72-4.72" fill="#6fc0de"/><g clip-path="url(#clip-path)"><path d="M408,145.47a70.68,70.68,0,0,1,8.25,11.2c12.28,20.64,15.74,39.27,14.94,56.15h.23c.75-16.81-2.73-35.36-15-55.91A70.7,70.7,0,0,0,408,145.47m-73-4.2c-33.83,0-58.61,36.53-61.06,45.62q0,.87,0,1.75h0c.28,0,6.94-8.36,17.29-16.71s24.41-16.71,39.5-16.71c9.66,0,19.75,3.43,29.56,12.48,13.74,12.68,8.87,28.54.46,45.11h30.44c2.63-20.05.73-38-15.3-53-14.44-13.47-28.32-18.56-40.94-18.56" fill="#3a7a91"/><path d="M347.64,120.09A87,87,0,0,0,321.81,124c-27.59,8.61-48.94,27.86-48.11,63.94a5.67,5.67,0,0,1,.19-1c2.46-9.09,27.23-45.62,61.06-45.62,12.61,0,26.49,5.08,40.94,18.56,16,15,17.92,32.94,15.3,53h40c.8-16.88-2.66-35.51-14.94-56.15a70.68,70.68,0,0,0-8.25-11.2c-15.46-17.15-38.12-25.38-60.33-25.38" fill="#6fc0de"/></g><path d="M763.23,198.15h2.28l-.08.4a3.24,3.24,0,0,1,.8-.42,2.58,2.58,0,0,1,.84-.14,2.26,2.26,0,0,1,.93.19,2.33,2.33,0,0,1,.75.52,2.47,2.47,0,0,1,.5.78,2.54,2.54,0,0,1,.18,1,4,4,0,0,1-.3,1.55,3.72,3.72,0,0,1-.81,1.21,3.62,3.62,0,0,1-1.19.78,3.74,3.74,0,0,1-1.44.28,2.56,2.56,0,0,1-.83-.13,2,2,0,0,1-.64-.34l-.48,2.1h1l-.23,1h-2.19l1.81-7.76H763Zm3.57.84a2.21,2.21,0,0,0-.82.17,2.89,2.89,0,0,0-.76.45l-.74,3.19a1.22,1.22,0,0,0,.47.33,2.09,2.09,0,0,0,.85.14,2.26,2.26,0,0,0,.88-.18,2.41,2.41,0,0,0,.78-.53,2.66,2.66,0,0,0,.56-.85,2.85,2.85,0,0,0,.21-1.14,2,2,0,0,0-.1-.67,1.42,1.42,0,0,0-.29-.5,1.29,1.29,0,0,0-.45-.31A1.48,1.48,0,0,0,766.8,199Z" fill="#6fc0de"/><path d="M770.31,201.56a3.63,3.63,0,0,1,.48-1.82,3.49,3.49,0,0,1,.55-.73,3.6,3.6,0,0,1,.71-.56,3.54,3.54,0,0,1,.83-.36,3.33,3.33,0,0,1,.92-.13,2.87,2.87,0,0,1,1.11.21,2.67,2.67,0,0,1,1.47,1.45,2.69,2.69,0,0,1,.21,1.07,3.66,3.66,0,0,1-.13,1,3.68,3.68,0,0,1-.91,1.6,3.38,3.38,0,0,1-.71.56,3.57,3.57,0,0,1-.84.36,3.38,3.38,0,0,1-.93.13,2.84,2.84,0,0,1-1.11-.21,2.71,2.71,0,0,1-.88-.58,2.64,2.64,0,0,1-.58-.87A2.83,2.83,0,0,1,770.31,201.56Zm1.22-.08a2.18,2.18,0,0,0,.12.74,1.66,1.66,0,0,0,.33.57,1.5,1.5,0,0,0,.52.37,1.65,1.65,0,0,0,.66.13,2,2,0,0,0,.83-.19,2.25,2.25,0,0,0,.71-.52,2.58,2.58,0,0,0,.5-.8,2.69,2.69,0,0,0,.19-1,2,2,0,0,0-.12-.73,1.65,1.65,0,0,0-.35-.56,1.51,1.51,0,0,0-.52-.36,1.68,1.68,0,0,0-.65-.12,2,2,0,0,0-.83.18,2.25,2.25,0,0,0-.71.51,2.53,2.53,0,0,0-.49.79A2.65,2.65,0,0,0,771.53,201.48Z" fill="#6fc0de"/><path d="M777.85,198.15h2.2l-.24,1h-.46l.19,3.63,2.42-4.63h1.12l.24,4.63,1.94-3.63h-.56l.24-1h2.2l-.24,1h-.52l-2.8,5.12h-1.14l-.21-4.62h0l-2.41,4.62h-1.15l-.43-5.12h-.61Z" fill="#6fc0de"/><path d="M788.49,201.37v.14a1.09,1.09,0,0,0,0,.11,1.91,1.91,0,0,0,.12.68,1.65,1.65,0,0,0,.33.54,1.54,1.54,0,0,0,.51.36,1.57,1.57,0,0,0,.64.13,2.15,2.15,0,0,0,.89-.19,1.86,1.86,0,0,0,.71-.55l.86.63a2.48,2.48,0,0,1-.47.47,3,3,0,0,1-.6.36,3.47,3.47,0,0,1-.71.23,3.71,3.71,0,0,1-.76.08,2.9,2.9,0,0,1-1-.19,2.43,2.43,0,0,1-1.42-1.41,3.11,3.11,0,0,1-.21-1.17,3.76,3.76,0,0,1,.26-1.41,3.6,3.6,0,0,1,.73-1.15,3.46,3.46,0,0,1,1.11-.78,3.36,3.36,0,0,1,1.38-.29,2.57,2.57,0,0,1,1,.19,2.38,2.38,0,0,1,.76.51,2.14,2.14,0,0,1,.48.74,2.34,2.34,0,0,1,.16.86,4.94,4.94,0,0,1,0,.57q0,.28-.08.51Zm2.15-2.41a1.91,1.91,0,0,0-.65.11,2,2,0,0,0-.56.31,2.31,2.31,0,0,0-.44.47,2.66,2.66,0,0,0-.31.58h3.43a1.74,1.74,0,0,0-.1-.64,1.18,1.18,0,0,0-.3-.46,1.27,1.27,0,0,0-.47-.28A1.86,1.86,0,0,0,790.64,199Z" fill="#6fc0de"/><path d="M799,199.81h-1.18l.17-.71a1.58,1.58,0,0,0-1,.29,2.24,2.24,0,0,0-.65.76l-.7,3h1l-.23,1h-2.18l1.16-5H794.3l.24-1h2.27l-.19.83a3.43,3.43,0,0,1,.35-.35,2.42,2.42,0,0,1,.39-.28,2.1,2.1,0,0,1,.43-.18,1.58,1.58,0,0,1,.45-.07h.36l.32,0,.47.06Z" fill="#6fc0de"/><path d="M801.42,201.37v.14a1.09,1.09,0,0,0,0,.11,1.91,1.91,0,0,0,.12.68,1.65,1.65,0,0,0,.33.54,1.54,1.54,0,0,0,.51.36,1.57,1.57,0,0,0,.64.13,2.15,2.15,0,0,0,.89-.19,1.86,1.86,0,0,0,.71-.55l.86.63a2.48,2.48,0,0,1-.47.47,3,3,0,0,1-.6.36,3.47,3.47,0,0,1-.71.23,3.71,3.71,0,0,1-.76.08,2.9,2.9,0,0,1-1-.19,2.43,2.43,0,0,1-1.42-1.41,3.11,3.11,0,0,1-.21-1.17,3.76,3.76,0,0,1,.26-1.41,3.6,3.6,0,0,1,.73-1.15,3.46,3.46,0,0,1,1.11-.78,3.36,3.36,0,0,1,1.38-.29,2.57,2.57,0,0,1,1,.19,2.38,2.38,0,0,1,.76.51,2.14,2.14,0,0,1,.48.74,2.34,2.34,0,0,1,.16.86,4.94,4.94,0,0,1,0,.57q0,.28-.08.51Zm2.15-2.41a1.91,1.91,0,0,0-.65.11,2,2,0,0,0-.56.31,2.31,2.31,0,0,0-.44.47,2.66,2.66,0,0,0-.31.58H805a1.74,1.74,0,0,0-.1-.64,1.18,1.18,0,0,0-.3-.46,1.27,1.27,0,0,0-.47-.28A1.86,1.86,0,0,0,803.57,199Z" fill="#6fc0de"/><path d="M811.74,195.13h2.17l-1.85,8h1l-.23,1h-2.17l.09-.39a3.33,3.33,0,0,1-.69.37,2.16,2.16,0,0,1-.78.14,2.36,2.36,0,0,1-1-.2,2.43,2.43,0,0,1-.78-.55,2.55,2.55,0,0,1-.53-.82,2.71,2.71,0,0,1-.19-1,3.8,3.8,0,0,1,.29-1.48,3.69,3.69,0,0,1,.78-1.18,3.57,3.57,0,0,1,1.14-.78,3.5,3.5,0,0,1,1.4-.28,2.73,2.73,0,0,1,.87.13,2.3,2.3,0,0,1,.7.37l.54-2.34h-1Zm-2.19,8.15a2,2,0,0,0,.76-.16,2.22,2.22,0,0,0,.71-.48l.72-3.12a1.41,1.41,0,0,0-.56-.39,2.27,2.27,0,0,0-.84-.14,2.13,2.13,0,0,0-.86.18,2.31,2.31,0,0,0-.75.52,2.6,2.6,0,0,0-.53.82,2.78,2.78,0,0,0-.2,1.08,2,2,0,0,0,.11.7,1.53,1.53,0,0,0,.32.53,1.41,1.41,0,0,0,.49.34A1.58,1.58,0,0,0,809.55,203.28Z" fill="#6fc0de"/><path d="M818.05,195.13h2.28l-.78,3.4a2.82,2.82,0,0,1,1.62-.53,2.24,2.24,0,0,1,.92.19,2.34,2.34,0,0,1,.75.52,2.47,2.47,0,0,1,.5.78,2.54,2.54,0,0,1,.18,1,4.07,4.07,0,0,1-.13,1.06,3.83,3.83,0,0,1-.38.92,3.63,3.63,0,0,1-1.34,1.34,3.77,3.77,0,0,1-1.87.49,2.5,2.5,0,0,1-.83-.13,1.92,1.92,0,0,1-.63-.34l-.09.37h-1.16l1.85-8h-1.12Zm2.84,3.87a2.22,2.22,0,0,0-.83.17,2.81,2.81,0,0,0-.76.46l-.74,3.19a1.19,1.19,0,0,0,.47.33,2.16,2.16,0,0,0,.85.14,2.26,2.26,0,0,0,.88-.18,2.41,2.41,0,0,0,.78-.53,2.66,2.66,0,0,0,.56-.85,2.85,2.85,0,0,0,.21-1.14,2,2,0,0,0-.1-.67,1.42,1.42,0,0,0-.29-.5,1.28,1.28,0,0,0-.45-.31A1.49,1.49,0,0,0,820.89,199Z" fill="#6fc0de"/><path d="M824.84,198.15H827l-.24,1h-.46l.35,3.71,2.37-3.71h-.49l.24-1H831l-.24,1h-.5L826,205.91h.59l-.25,1h-2.38l.25-1h.59l1.08-1.69-.66-5.07h-.57Z" fill="#6fc0de"/><path d="M837.63,204.35a3.61,3.61,0,0,1-2.6-1.09,3.84,3.84,0,0,1-.81-1.26,4.33,4.33,0,0,1-.3-1.64,5.57,5.57,0,0,1,.18-1.44,5.31,5.31,0,0,1,.51-1.25,4.86,4.86,0,0,1,.78-1,4.8,4.8,0,0,1,1-.78,5,5,0,0,1,2.51-.66,3.89,3.89,0,0,1,1.42.26,3.46,3.46,0,0,1,1.18.75,3.59,3.59,0,0,1,.81,1.21,4.21,4.21,0,0,1,.3,1.63,6.08,6.08,0,0,1-.17,1.48,5.52,5.52,0,0,1-.49,1.28,4.84,4.84,0,0,1-.77,1.06,4.67,4.67,0,0,1-1,.8,4.87,4.87,0,0,1-1.2.51A5.07,5.07,0,0,1,837.63,204.35Zm.13-1.18a3.28,3.28,0,0,0,1.81-.54,3.56,3.56,0,0,0,.72-.62,3.78,3.78,0,0,0,.55-.81,4.4,4.4,0,0,0,.35-1,4.63,4.63,0,0,0,.13-1.09,3.31,3.31,0,0,0-.19-1.15,2.59,2.59,0,0,0-.53-.87,2.28,2.28,0,0,0-.8-.56,2.6,2.6,0,0,0-1-.19,3.29,3.29,0,0,0-1.37.29,3.52,3.52,0,0,0-1.13.81,3.91,3.91,0,0,0-.77,1.23,4.16,4.16,0,0,0-.28,1.56,3.42,3.42,0,0,0,.19,1.15,2.85,2.85,0,0,0,.53.92,2.43,2.43,0,0,0,.8.61A2.34,2.34,0,0,0,837.76,203.17Z" fill="#6fc0de"/><path d="M847.76,199.52a1.44,1.44,0,0,0-.35-.29,1.61,1.61,0,0,0-.43-.17,2,2,0,0,0-.48-.06,1.65,1.65,0,0,0-.68.17,2.23,2.23,0,0,0-.67.49,2.6,2.6,0,0,0-.72,1.85,2.13,2.13,0,0,0,.13.77,1.66,1.66,0,0,0,.34.56,1.37,1.37,0,0,0,.5.34,1.61,1.61,0,0,0,.6.11,2.37,2.37,0,0,0,.44,0,1.48,1.48,0,0,0,.39-.13,1.79,1.79,0,0,0,.36-.24,2.35,2.35,0,0,0,.34-.36l.84.63a2.59,2.59,0,0,1-.51.54,2.83,2.83,0,0,1-1.25.56,3.69,3.69,0,0,1-.66.06,2.79,2.79,0,0,1-1.1-.21,2.62,2.62,0,0,1-.87-.58,2.71,2.71,0,0,1-.57-.87,2.83,2.83,0,0,1-.21-1.08,3.51,3.51,0,0,1,.3-1.45,3.71,3.71,0,0,1,.78-1.14,3.55,3.55,0,0,1,1.09-.74,3.05,3.05,0,0,1,1.23-.26,3.12,3.12,0,0,1,.58.06,2.53,2.53,0,0,1,.56.17,2.38,2.38,0,0,1,.5.3,2.27,2.27,0,0,1,.42.42h.73l-.16,1H848A1.38,1.38,0,0,0,847.76,199.52Z" fill="#6fc0de"/><path d="M850.34,198.15h1l.35-1.44,1.23-.5-.46,1.94h1.27l-.24,1h-1.27l-.77,3.25-.06.24a1.24,1.24,0,0,0,0,.25.43.43,0,0,0,.14.37.75.75,0,0,0,.45.11,2.15,2.15,0,0,0,.8-.19l.1.83a4.14,4.14,0,0,1-.59.23,2.22,2.22,0,0,1-.63.08,2.34,2.34,0,0,1-.67-.09,1.12,1.12,0,0,1-.5-.3,1,1,0,0,1-.26-.54,2,2,0,0,1,0-.82l.84-3.42h-1Z" fill="#6fc0de"/><path d="M854.21,201.56a3.63,3.63,0,0,1,.48-1.82,3.49,3.49,0,0,1,.55-.73,3.6,3.6,0,0,1,.71-.56,3.54,3.54,0,0,1,.83-.36,3.33,3.33,0,0,1,.92-.13,2.87,2.87,0,0,1,1.11.21,2.67,2.67,0,0,1,1.47,1.45,2.69,2.69,0,0,1,.21,1.07,3.66,3.66,0,0,1-.13,1,3.68,3.68,0,0,1-.91,1.6,3.38,3.38,0,0,1-.71.56,3.57,3.57,0,0,1-.84.36,3.38,3.38,0,0,1-.93.13,2.84,2.84,0,0,1-1.11-.21,2.71,2.71,0,0,1-.88-.58,2.64,2.64,0,0,1-.58-.87A2.83,2.83,0,0,1,854.21,201.56Zm1.22-.08a2.18,2.18,0,0,0,.12.74,1.66,1.66,0,0,0,.33.57,1.5,1.5,0,0,0,.52.37,1.65,1.65,0,0,0,.66.13,2,2,0,0,0,.83-.19,2.25,2.25,0,0,0,.71-.52,2.58,2.58,0,0,0,.5-.8,2.69,2.69,0,0,0,.19-1,2,2,0,0,0-.12-.73,1.65,1.65,0,0,0-.35-.56,1.51,1.51,0,0,0-.52-.36,1.68,1.68,0,0,0-.65-.12,2,2,0,0,0-.83.18,2.25,2.25,0,0,0-.71.51,2.53,2.53,0,0,0-.49.79A2.65,2.65,0,0,0,855.43,201.48Z" fill="#6fc0de"/><path d="M863.33,195.36h3.53a2.38,2.38,0,0,1,.92.17,2.23,2.23,0,0,1,.72.47,2.1,2.1,0,0,1,.47.7,2.2,2.2,0,0,1,.17.85,2.7,2.7,0,0,1-.23,1.11,2.44,2.44,0,0,1-.67.88,3.19,3.19,0,0,1-1.09.58,4.76,4.76,0,0,1-1.49.21h-1.44l-.65,2.82h.88l-.23,1h-2.86l.23-1h.77l1.57-6.81h-.86Zm1.83,1-.68,3h1.33a3.08,3.08,0,0,0,.86-.11,2,2,0,0,0,.67-.33,1.48,1.48,0,0,0,.43-.54,1.7,1.7,0,0,0,.15-.73,1.42,1.42,0,0,0-.08-.47,1.14,1.14,0,0,0-.25-.41,1.23,1.23,0,0,0-.43-.28,1.63,1.63,0,0,0-.62-.11Z" fill="#6fc0de"/><path d="M874.16,199.81H873l.17-.71a1.58,1.58,0,0,0-1,.29,2.24,2.24,0,0,0-.65.76l-.7,3h1l-.23,1h-2.18l1.16-5h-1.15l.24-1H872l-.19.83a3.43,3.43,0,0,1,.35-.35,2.42,2.42,0,0,1,.39-.28,2.1,2.1,0,0,1,.43-.18,1.58,1.58,0,0,1,.45-.07h.36l.32,0,.47.06Z" fill="#6fc0de"/><path d="M875.87,198.15h2.25l-1.16,5h1l-.23,1h-2.15l1.16-5h-1.08ZM877,196a.73.73,0,0,1,.06-.3.75.75,0,0,1,.17-.24.8.8,0,0,1,.24-.16.76.76,0,0,1,.6,0,.76.76,0,0,1,.4.4.73.73,0,0,1,.06.3.75.75,0,0,1-.06.3.84.84,0,0,1-.16.25.77.77,0,0,1-.24.17.73.73,0,0,1-.6,0,.79.79,0,0,1-.24-.17.81.81,0,0,1-.17-.25A.75.75,0,0,1,877,196Z" fill="#6fc0de"/><path d="M880,198.15h2.27l-.14.62a3.26,3.26,0,0,1,.9-.53,2.83,2.83,0,0,1,1-.19,2.39,2.39,0,0,1,.84.14,1.43,1.43,0,0,1,.61.42,1.48,1.48,0,0,1,.31.71,2.51,2.51,0,0,1-.05,1l-.66,2.87H886l-.23,1h-2l.87-3.73a1.21,1.21,0,0,0-.11-1,1.07,1.07,0,0,0-.91-.35,2,2,0,0,0-.86.19,3,3,0,0,0-.77.54l-1,4.37h-1.18l1.16-5h-1.15Z" fill="#6fc0de"/><path d="M888,198.15h1l.35-1.44,1.23-.5-.46,1.94h1.27l-.24,1h-1.27l-.77,3.25-.06.24a1.24,1.24,0,0,0,0,.25.43.43,0,0,0,.14.37.75.75,0,0,0,.45.11,2.15,2.15,0,0,0,.8-.19l.1.83a4.14,4.14,0,0,1-.59.23,2.22,2.22,0,0,1-.63.08,2.34,2.34,0,0,1-.67-.09,1.12,1.12,0,0,1-.5-.3,1,1,0,0,1-.26-.54,2,2,0,0,1,0-.82l.84-3.42h-1Z" fill="#6fc0de"/></g><g id="Layer_9" data-name="Layer 9"><path d="M440,66.78a8.07,8.07,0,0,1-8.07,8.07H399.62a8.07,8.07,0,0,1-8.07-8.07V26.43a8.07,8.07,0,0,1,8.07-8.07H431.9A8.07,8.07,0,0,1,440,26.43Zm-9.22,0V26.43h-30V66.78Z" fill="#ba8b00"/><path d="M492.42,34.5l-7,6.92H465.91V67.94h24.21v6.92H465.91a8.07,8.07,0,0,1-8.07-8.07V42.57a8.07,8.07,0,0,1,8.07-8.07Z" fill="#ba8b00"/><path d="M527,74.85H510.87a8.07,8.07,0,0,1-8.07-8.07V41.42H491.27l6.92-6.92h4.61V26.43l8.07-8.07V34.5H527v6.92H510.87V67.94H527Z" fill="#ba8b00"/><path d="M578.89,66.78a8.07,8.07,0,0,1-8.07,8.07H546.61a8.07,8.07,0,0,1-8.07-8.07V42.57a8.07,8.07,0,0,1,8.07-8.07h24.21a8.07,8.07,0,0,1,8.07,8.07Zm-8.07,1.15V41.42H546.61V67.94Z" fill="#ba8b00"/><path d="M645.18,66.78a8.07,8.07,0,0,1-8.07,8.07H604.83a8.07,8.07,0,0,1-8.07-8.07V26.43a8.07,8.07,0,0,1,8.07-8.07h32.28a8.07,8.07,0,0,1,8.07,8.07V34.5H636V26.43H606V66.78h30V58.71h9.22Z" fill="#ba8b00"/><path d="M779.49,66.78a8.07,8.07,0,0,1-8.07,8.07H739.14a8.07,8.07,0,0,1-8.07-8.07V26.43a8.07,8.07,0,0,1,8.07-8.07h32.28a8.07,8.07,0,0,1,8.07,8.07V34.5h-9.22V26.43h-30V66.78h30V58.71h9.22Z" fill="#ba8b00"/><polygon points="662.47 74.74 671.7 74.74 671.7 66.75 662.47 61.38 662.47 74.74" fill="#ba8b00"/><polygon points="662.47 56.67 671.7 62.55 671.7 57.62 662.47 52.25 662.47 56.67" fill="#ba8b00"/><polygon points="662.47 47.54 671.7 53.41 671.7 48.49 662.47 43.12 662.47 47.54" fill="#ba8b00"/><polygon points="701.67 18.25 701.67 60.33 701.67 66.08 678.73 18.25 662.47 18.25 662.47 29.28 671.7 35.15 671.7 32.66 671.7 26.96 694.75 74.74 710.89 74.74 710.89 18.25 701.67 18.25" fill="#ba8b00"/><polygon points="662.47 38.41 671.7 44.28 671.7 39.36 662.47 33.99 662.47 38.41" fill="#ba8b00"/></g></g></svg>